<svg width="90" height="90" viewBox="0 0 90 90" fill="none" xmlns="http://www.w3.org/2000/svg">
<path d="M69.375 75H20.625L9.375 86.25V22.5C9.375 16.3125 14.4375 11.25 20.625 11.25H69.375C75.5625 11.25 80.625 16.3125 80.625 22.5V63.75C80.625 69.9375 75.5625 75 69.375 75Z" fill="#FDDB93"/>
<path d="M41.25 37.5H48.75V58.125H41.25V37.5Z" fill="#495371"/>
<path d="M45 31.875C47.0711 31.875 48.75 30.1961 48.75 28.125C48.75 26.0539 47.0711 24.375 45 24.375C42.9289 24.375 41.25 26.0539 41.25 28.125C41.25 30.1961 42.9289 31.875 45 31.875Z" fill="#495371"/>
</svg>
