<svg width="75" height="61" viewBox="0 0 75 61" fill="none" xmlns="http://www.w3.org/2000/svg">
<path d="M66.5625 0C68.8003 0 70.9464 0.888949 72.5287 2.47129C74.111 4.05363 75 6.19974 75 8.4375V51.5812C75 53.819 74.111 55.9651 72.5287 57.5475C70.9464 59.1298 68.8003 60.0187 66.5625 60.0187H8.4375C7.32947 60.0187 6.23229 59.8005 5.20861 59.3765C4.18492 58.9525 3.25478 58.331 2.47129 57.5475C1.68779 56.764 1.06629 55.8338 0.642267 54.8101C0.218242 53.7865 0 52.6893 0 51.5812V8.4375C0 6.19974 0.888948 4.05363 2.47129 2.47129C4.05362 0.888949 6.19974 0 8.4375 0H66.5625ZM29.0625 31.875H15.9375C15.2579 31.875 14.6012 32.1212 14.089 32.5679C13.5768 33.0146 13.2437 33.6317 13.1512 34.305L13.125 34.6875V36.5325L13.155 36.9375C13.7625 41.115 17.2575 43.125 22.5 43.125C27.4912 43.125 30.9 41.3025 31.74 37.5225L31.845 36.9412L31.875 36.5363V34.6875C31.875 34.0079 31.6288 33.3512 31.1821 32.839C30.7354 32.3268 30.1183 31.9937 29.445 31.9012L29.0625 31.875ZM59.0625 33.735H42.195L41.8125 33.7612C41.1393 33.8539 40.5225 34.1871 40.0759 34.6993C39.6294 35.2115 39.3834 35.868 39.3834 36.5475C39.3834 37.227 39.6294 37.8835 40.0759 38.3957C40.5225 38.9079 41.1393 39.2411 41.8125 39.3338L42.195 39.36H59.0625L59.445 39.3338C60.1182 39.2411 60.735 38.9079 61.1816 38.3957C61.6281 37.8835 61.8741 37.227 61.8741 36.5475C61.8741 35.868 61.6281 35.2115 61.1816 34.6993C60.735 34.1871 60.1182 33.8539 59.445 33.7612L59.0625 33.735ZM22.5 16.8825C21.0082 16.8825 19.5774 17.4751 18.5225 18.53C17.4676 19.5849 16.875 21.0157 16.875 22.5075C16.875 23.9993 17.4676 25.4301 18.5225 26.485C19.5774 27.5399 21.0082 28.1325 22.5 28.1325C23.9918 28.1325 25.4226 27.5399 26.4775 26.485C27.5324 25.4301 28.125 23.9993 28.125 22.5075C28.125 21.0157 27.5324 19.5849 26.4775 18.53C25.4226 17.4751 23.9918 16.8825 22.5 16.8825ZM59.0625 20.625H42.195L41.8125 20.6512C41.1393 20.7439 40.5225 21.0771 40.0759 21.5893C39.6294 22.1015 39.3834 22.758 39.3834 23.4375C39.3834 24.117 39.6294 24.7735 40.0759 25.2857C40.5225 25.7979 41.1393 26.1311 41.8125 26.2238L42.195 26.25H59.0625L59.445 26.2238C60.1182 26.1311 60.735 25.7979 61.1816 25.2857C61.6281 24.7735 61.8741 24.117 61.8741 23.4375C61.8741 22.758 61.6281 22.1015 61.1816 21.5893C60.735 21.0771 60.1182 20.7439 59.445 20.6512L59.0625 20.625Z" fill="#F1E0AC"/>
</svg>
