<svg width="90" height="90" viewBox="0 0 90 90" fill="none" xmlns="http://www.w3.org/2000/svg">
<path d="M83.1885 44.3848L46.9863 8.20897C46.7257 7.9478 46.416 7.74059 46.0752 7.59922C45.7344 7.45784 45.369 7.38507 45 7.38507C44.631 7.38507 44.2656 7.45784 43.9248 7.59922C43.5839 7.74059 43.2743 7.9478 43.0137 8.20897L6.81152 44.3848C5.75684 45.4394 5.15918 46.8721 5.15918 48.3662C5.15918 51.4687 7.68164 53.9912 10.7842 53.9912H14.5986V79.8047C14.5986 81.3603 15.8555 82.6172 17.4111 82.6172H39.375V62.9297H49.2188V82.6172H72.5889C74.1445 82.6172 75.4014 81.3603 75.4014 79.8047V53.9912H79.2158C80.71 53.9912 82.1426 53.4023 83.1973 52.3389C85.3857 50.1416 85.3857 46.582 83.1885 44.3848Z" fill="#FDDB93"/>
</svg>
