<svg width="90" height="90" viewBox="0 0 90 90" fill="none" xmlns="http://www.w3.org/2000/svg">
<rect width="90" height="90" fill="#495371"/>
<rect width="90" height="90" fill="#495371" fill-opacity="0.2"/>
<path d="M24.0606 21.799C27.8629 21.799 30.9452 18.7166 30.9452 14.9144C30.9452 11.1121 27.8629 8.02979 24.0606 8.02979C20.2584 8.02979 17.176 11.1121 17.176 14.9144C17.176 18.7166 20.2584 21.799 24.0606 21.799Z" fill="#FDDB93"/>
<path d="M73.6144 54.4088H51.6489L51.0184 57.6638C50.9262 58.1403 51.0517 58.633 51.3603 59.0077C51.6692 59.3823 52.1293 59.6009 52.6148 59.6009C53.2444 59.6009 54.0028 59.6009 54.8483 59.6009V78.3893C54.8483 80.3292 56.4208 81.9019 58.3608 81.9019C60.3007 81.9019 61.8734 80.3294 61.8734 78.3893V59.6009C62.3783 59.6009 62.885 59.6009 63.3899 59.6009V78.3893C63.3899 80.3292 64.9626 81.9019 66.9025 81.9019C68.8423 81.9019 70.415 80.3294 70.415 78.3893V59.6009C71.2607 59.6009 72.0191 59.6009 72.6485 59.6009C73.1343 59.6009 73.5945 59.3837 73.9036 59.0089C74.2126 58.634 74.3373 58.1407 74.2451 57.6638L73.6144 54.4088Z" fill="#FDDB93"/>
<path d="M16.0974 78.3893C16.0974 80.3668 17.7005 81.9701 19.6782 81.9701C21.6559 81.9701 23.2587 80.367 23.2587 78.3893V54.4088H16.0974V78.3893Z" fill="#FDDB93"/>
<path d="M24.8047 78.3893C24.8047 80.3668 26.4077 81.9701 28.3852 81.9701C30.3627 81.9701 31.966 80.367 31.966 78.3893V54.4088H24.8047V78.3893Z" fill="#FDDB93"/>
<path d="M53.04 17.3014C54.204 17.3014 55.2205 16.6814 55.7857 15.7555C56.1494 19.2154 59.0754 21.9123 62.6317 21.9123C66.188 21.9123 69.1141 19.2156 69.4777 15.7555C70.0427 16.6814 71.0593 17.3014 72.2234 17.3014C74.0007 17.3014 75.3599 17.4644 76.5818 20.3157C78.8628 15.7882 75.034 10.8655 72.2234 10.8655C70.836 10.8655 69.6572 11.7453 69.2053 12.9759C68.3323 10.1758 65.7194 8.14307 62.6319 8.14307C59.5443 8.14307 56.9316 10.1758 56.0585 12.9759C55.6066 11.7451 54.4277 10.8655 53.0404 10.8655C50.2299 10.8655 46.4008 15.7884 48.682 20.3157C49.9035 17.4642 51.2628 17.3014 53.04 17.3014Z" fill="#FDDB93"/>
<path d="M87.044 45.0805C85.8323 45.0805 76.9685 45.0805 75.7016 45.0805C76.2872 44.9011 76.8124 44.5479 77.1945 44.0511C77.7605 43.3154 77.9519 42.358 77.7121 41.4611C77.1592 39.3937 75.6177 33.3826 75.383 31.3489C74.935 27.4674 71.9735 24.6503 68.3413 24.6503C67.0149 24.6503 58.2336 24.6503 56.9213 24.6503C53.2891 24.6503 50.3278 27.4674 49.8798 31.3491C49.6433 33.3975 48.0848 39.4639 47.5509 41.4611C47.3111 42.358 47.5024 43.3154 48.0684 44.0511C48.4506 44.5479 48.9756 44.9011 49.5613 45.0805C40.7648 45.0805 46.1644 45.0805 37.1175 45.0805C37.6311 44.9216 38.0984 44.6274 38.4635 44.2178C39.0309 43.5817 39.2992 42.733 39.2006 41.8864C39.0605 40.6838 38.1399 32.7832 37.989 31.488C37.8699 27.7006 34.7425 24.6501 30.9311 24.6501C28.0585 24.6501 19.9 24.6501 17.1462 24.6501C13.335 24.6501 10.2074 27.7006 10.0883 31.4878C9.93737 32.7829 9.01701 40.6836 8.87688 41.8864C8.77815 42.733 9.04637 43.5817 9.61396 44.2178C9.97915 44.6274 10.4464 44.9216 10.96 45.0805C6.47329 45.0805 7.45397 45.0805 2.9562 45.0805C1.32359 45.0805 0 46.4041 0 48.0367C0 49.6693 1.32359 50.9929 2.9562 50.9929H87.0438C88.6764 50.9929 90 49.6693 90 48.0367C90.0002 46.4041 88.6766 45.0805 87.044 45.0805ZM22.0629 45.0805C22.9799 44.8174 23.7133 44.1276 24.0389 43.2393C24.3642 44.1276 25.0978 44.8174 26.0146 45.0805H22.0629ZM26.8441 39.2303C26.8421 39.2303 26.8403 39.2303 26.8386 39.2303C25.5518 39.2303 24.4578 40.0468 24.0392 41.1893C23.6236 40.0545 22.5369 39.2303 21.2344 39.2303C19.7051 39.2331 16.7191 39.2386 15.1937 39.2414C15.9446 32.7927 16.0961 31.209 16.0961 31.209V36.312L22.0178 36.3019C22.0211 36.3019 22.0247 36.3019 22.028 36.3019C22.7342 36.3019 23.4112 36.4261 24.039 36.6533C24.6669 36.4263 25.3437 36.3019 26.0499 36.3019C26.0534 36.3019 26.0566 36.3019 26.0601 36.3019L31.9014 36.3118V31.2088L32.8848 39.2414L26.8441 39.2303ZM60.6556 45.0805C61.5726 44.8174 62.3061 44.1276 62.6315 43.2393C62.9569 44.1276 63.6904 44.8174 64.6072 45.0805H60.6556ZM65.4367 39.2305C65.4347 39.2305 65.4332 39.2305 65.4312 39.2305C64.1445 39.2305 63.0505 40.047 62.6321 41.1895C62.2164 40.0547 61.1297 39.2305 59.8272 39.2305C58.5082 39.2329 57.6501 39.2345 54.2841 39.2408C54.5145 38.3104 54.7587 37.2988 54.984 36.3116L60.6106 36.3019C60.614 36.3019 60.6175 36.3019 60.6209 36.3019C61.3268 36.3019 62.004 36.4261 62.6319 36.6533C63.2596 36.4263 63.9365 36.3019 64.6427 36.3019C64.6462 36.3019 64.6494 36.3019 64.6529 36.3019L70.2794 36.3116C70.5046 37.2986 70.7488 38.3104 70.9796 39.2408L65.4367 39.2305Z" fill="#FDDB93"/>
</svg>
