<svg width="577" height="2196" viewBox="0 0 577 2196" fill="none" xmlns="http://www.w3.org/2000/svg">
<path fill-rule="evenodd" clip-rule="evenodd" d="M70.3212 2195.83L170.164 2122.73C268.286 2049.62 467.972 1903.41 504.225 1757.06C542.199 1610.7 418.461 1464.21 406.546 1317.82C392.91 1171.42 492.815 1025.12 542.832 878.78C592.848 732.438 592.974 586.053 505.364 439.593C419.474 293.134 245.846 146.599 159.893 73.332L72.2191 0.0637593L-1.75526 -0.000180505L-1.81852 73.1922C-1.88178 146.385 -2.00831 292.769 -2.13484 439.154C-2.26137 585.539 -2.3879 731.924 -2.51442 878.308C-2.64095 1024.69 -2.76748 1171.08 -2.89401 1317.46C-3.02053 1463.85 -3.14706 1610.23 -3.27359 1756.62C-3.40012 1903 -3.52665 2049.39 -3.58991 2122.58L-3.65317 2195.77L70.3212 2195.83Z" fill="#495371"/>
</svg>
