<svg width="64" height="64" viewBox="0 0 64 64" fill="none" xmlns="http://www.w3.org/2000/svg">
<path fill-rule="evenodd" clip-rule="evenodd" d="M19.9067 2.8425C23.0347 2.6985 24.032 2.6665 32 2.6665C39.968 2.6665 40.9653 2.70117 44.0907 2.8425C47.216 2.98384 49.3493 3.4825 51.216 4.20517C53.1707 4.94384 54.944 6.0985 56.4107 7.59184C57.904 9.05584 59.056 10.8265 59.792 12.7838C60.5173 14.6505 61.0133 16.7838 61.1573 19.9038C61.3013 23.0372 61.3333 24.0345 61.3333 31.9998C61.3333 39.9678 61.2987 40.9652 61.1573 44.0932C61.016 47.2132 60.5173 49.3465 59.792 51.2132C59.056 53.1708 57.9021 54.9444 56.4107 56.4105C54.944 57.9038 53.1707 59.0558 51.216 59.7918C49.3493 60.5172 47.216 61.0132 44.096 61.1572C40.9653 61.3012 39.968 61.3332 32 61.3332C24.032 61.3332 23.0347 61.2985 19.9067 61.1572C16.7867 61.0158 14.6533 60.5172 12.7867 59.7918C10.8291 59.0557 9.05552 57.9019 7.58933 56.4105C6.09701 54.9456 4.94217 53.1729 4.20533 51.2158C3.48266 49.3492 2.98666 47.2158 2.84266 44.0958C2.69866 40.9625 2.66666 39.9652 2.66666 31.9998C2.66666 24.0318 2.70133 23.0345 2.84266 19.9092C2.984 16.7838 3.48266 14.6505 4.20533 12.7838C4.94326 10.8267 6.09898 9.05401 7.592 7.58917C9.05611 6.09717 10.8279 4.94235 12.784 4.20517C14.6507 3.4825 16.784 2.9865 19.904 2.8425H19.9067ZM43.8533 8.1225C40.76 7.98117 39.832 7.95184 32 7.95184C24.168 7.95184 23.24 7.98117 20.1467 8.1225C17.2853 8.25317 15.7333 8.7305 14.6987 9.13317C13.3307 9.6665 12.352 10.2985 11.3253 11.3252C10.3521 12.272 9.60315 13.4246 9.13333 14.6985C8.73066 15.7332 8.25333 17.2852 8.12266 20.1465C7.98133 23.2398 7.952 24.1678 7.952 31.9998C7.952 39.8318 7.98133 40.7598 8.12266 43.8532C8.25333 46.7145 8.73066 48.2665 9.13333 49.3012C9.60266 50.5732 10.352 51.7278 11.3253 52.6745C12.272 53.6478 13.4267 54.3972 14.6987 54.8665C15.7333 55.2692 17.2853 55.7465 20.1467 55.8772C23.24 56.0185 24.1653 56.0478 32 56.0478C39.8347 56.0478 40.76 56.0185 43.8533 55.8772C46.7147 55.7465 48.2667 55.2692 49.3013 54.8665C50.6693 54.3332 51.648 53.7012 52.6747 52.6745C53.648 51.7278 54.3973 50.5732 54.8667 49.3012C55.2693 48.2665 55.7467 46.7145 55.8773 43.8532C56.0187 40.7598 56.048 39.8318 56.048 31.9998C56.048 24.1678 56.0187 23.2398 55.8773 20.1465C55.7467 17.2852 55.2693 15.7332 54.8667 14.6985C54.3333 13.3305 53.7013 12.3518 52.6747 11.3252C51.7278 10.352 50.5752 9.60307 49.3013 9.13317C48.2667 8.7305 46.7147 8.25317 43.8533 8.1225V8.1225ZM28.2533 41.0425C30.3458 41.9135 32.6757 42.0311 34.8451 41.3751C37.0146 40.7191 38.889 39.3303 40.1483 37.4458C41.4075 35.5614 41.9735 33.2982 41.7495 31.0428C41.5254 28.7874 40.5253 26.6798 38.92 25.0798C37.8966 24.0571 36.6592 23.274 35.2969 22.7869C33.9345 22.2998 32.4811 22.1208 31.0413 22.2628C29.6015 22.4048 28.2111 22.8643 26.9701 23.6082C25.7292 24.3521 24.6686 25.3618 23.8648 26.5648C23.061 27.7677 22.5338 29.1339 22.3214 30.5651C22.1089 31.9962 22.2164 33.4566 22.6361 34.8412C23.0558 36.2258 23.7773 37.5001 24.7486 38.5724C25.7199 39.6447 26.9169 40.4883 28.2533 41.0425ZM21.3387 21.3385C22.7387 19.9384 24.4009 18.8278 26.2301 18.0701C28.0594 17.3124 30.02 16.9224 32 16.9224C33.98 16.9224 35.9406 17.3124 37.7699 18.0701C39.5991 18.8278 41.2613 19.9384 42.6613 21.3385C44.0614 22.7386 45.172 24.4007 45.9297 26.23C46.6874 28.0592 47.0774 30.0198 47.0774 31.9998C47.0774 33.9798 46.6874 35.9404 45.9297 37.7697C45.172 39.599 44.0614 41.2611 42.6613 42.6612C39.8338 45.4887 35.9988 47.0772 32 47.0772C28.0012 47.0772 24.1662 45.4887 21.3387 42.6612C18.5111 39.8336 16.9226 35.9986 16.9226 31.9998C16.9226 28.0011 18.5111 24.1661 21.3387 21.3385V21.3385ZM50.4213 19.1678C50.7683 18.8406 51.046 18.447 51.2381 18.0104C51.4303 17.5739 51.5328 17.1032 51.5398 16.6263C51.5467 16.1494 51.4579 15.676 51.2786 15.234C51.0993 14.792 50.8332 14.3905 50.4959 14.0533C50.1586 13.716 49.7571 13.4499 49.3152 13.2706C48.8732 13.0912 48.3998 13.0024 47.9229 13.0094C47.4459 13.0163 46.9753 13.1189 46.5387 13.311C46.1022 13.5031 45.7086 13.7809 45.3813 14.1278C44.7448 14.8026 44.3963 15.6988 44.4099 16.6263C44.4234 17.5538 44.7978 18.4395 45.4537 19.0954C46.1097 19.7513 46.9954 20.1258 47.9229 20.1393C48.8503 20.1528 49.7466 19.8043 50.4213 19.1678V19.1678Z" fill="#FDDB93"/>
</svg>
