<svg width="64" height="64" viewBox="0 0 64 64" fill="none" xmlns="http://www.w3.org/2000/svg">
<path d="M63.048 13.1654C60.8213 14.152 58.4293 14.8187 55.9147 15.12C58.5093 13.5675 60.4505 11.124 61.376 8.24538C58.9383 9.69335 56.2703 10.7126 53.488 11.2587C51.617 9.26102 49.1388 7.93691 46.4382 7.49197C43.7376 7.04703 40.9656 7.50615 38.5526 8.79805C36.1397 10.0899 34.2207 12.1423 33.0937 14.6366C31.9668 17.1308 31.6948 19.9274 32.32 22.592C27.3805 22.344 22.5483 21.0602 18.1371 18.8238C13.7259 16.5874 9.83424 13.4485 6.71466 9.61071C5.648 11.4507 5.03467 13.584 5.03467 15.856C5.03347 17.9014 5.53715 19.9154 6.50101 21.7193C7.46486 23.5233 8.8591 25.0615 10.56 26.1974C8.5874 26.1346 6.65833 25.6016 4.93333 24.6427V24.8027C4.93313 27.6713 5.92542 30.4517 7.74182 32.672C9.55822 34.8923 12.0869 36.4159 14.8987 36.984C13.0688 37.4793 11.1502 37.5522 9.288 37.1974C10.0813 39.6657 11.6267 41.8241 13.7076 43.3705C15.7886 44.9169 18.3011 45.7739 20.8933 45.8214C16.4929 49.2758 11.0584 51.1496 5.464 51.1414C4.47301 51.1416 3.48287 51.0838 2.49866 50.968C8.17727 54.6192 14.7876 56.5569 21.5387 56.5494C44.392 56.5494 56.8853 37.6214 56.8853 21.2054C56.8853 20.672 56.872 20.1334 56.848 19.6C59.2781 17.8426 61.3758 15.6664 63.0427 13.1734L63.048 13.1654V13.1654Z" fill="#FDDB93"/>
</svg>
