<svg width="60" height="60" viewBox="0 0 60 60" fill="none" xmlns="http://www.w3.org/2000/svg">
<path d="M51.2177 42.85L41.0552 33.61C40.5748 33.1734 39.9436 32.9405 39.2947 32.9606C38.6459 32.9806 38.0302 33.252 37.5777 33.7175L31.5952 39.87C30.1552 39.595 27.2602 38.6925 24.2802 35.72C21.3002 32.7375 20.3977 29.835 20.1302 28.405L26.2777 22.42C26.7437 21.9678 27.0156 21.352 27.0356 20.703C27.0557 20.054 26.8224 19.4226 26.3852 18.9425L17.1477 8.78249C16.7103 8.30088 16.1024 8.00875 15.4531 7.96814C14.8038 7.92752 14.1642 8.14163 13.6702 8.56499L8.24522 13.2175C7.81299 13.6513 7.55502 14.2286 7.52022 14.84C7.48272 15.465 6.76772 30.27 18.2477 41.755C28.2627 51.7675 40.8077 52.5 44.2627 52.5C44.7677 52.5 45.0777 52.485 45.1602 52.48C45.7715 52.4458 46.3485 52.1866 46.7802 51.7525L51.4302 46.325C51.8552 45.8326 52.0709 45.1935 52.0312 44.5442C51.9915 43.895 51.6996 43.2869 51.2177 42.85Z" fill="#FDDB93"/>
</svg>
