<svg width="69" height="95" viewBox="0 0 69 95" fill="none" xmlns="http://www.w3.org/2000/svg">
<path d="M30 72.5C26.8424 69.8066 23.9155 66.8538 21.25 63.6725C17.25 58.895 12.5 51.78 12.5 45C12.4983 41.5374 13.5238 38.1521 15.4467 35.2726C17.3697 32.393 20.1037 30.1486 23.3027 28.8235C26.5017 27.4983 30.0219 27.152 33.4178 27.8282C36.8137 28.5045 39.9327 30.1729 42.38 32.6225C44.0094 34.2446 45.3009 36.1738 46.1797 38.2984C47.0586 40.423 47.5073 42.7008 47.5 45C47.5 51.78 42.75 58.895 38.75 63.6725C36.0845 66.8538 33.1576 69.8065 30 72.5ZM30 37.5C28.0109 37.5 26.1032 38.2902 24.6967 39.6967C23.2902 41.1032 22.5 43.0109 22.5 45C22.5 46.9891 23.2902 48.8968 24.6967 50.3033C26.1032 51.7098 28.0109 52.5 30 52.5C31.9891 52.5 33.8968 51.7098 35.3033 50.3033C36.7098 48.8968 37.5 46.9891 37.5 45C37.5 43.0109 36.7098 41.1032 35.3033 39.6967C33.8968 38.2902 31.9891 37.5 30 37.5Z" fill="#FDDB93"/>
</svg>
