<svg width="50" height="50" viewBox="0 0 80 80" fill="none" xmlns="http://www.w3.org/2000/svg">
<g clip-path="url(#clip0_198_2)">
<path d="M52.9111 57.7778C52.1333 59.7778 50.8222 61.1112 49.3333 61.1112H30.5333C29.0222 61.1112 27.7333 59.7778 26.9556 57.7778H2.22223V61.6667C2.33597 63.0918 3.00566 64.415 4.0867 65.3505C5.16773 66.286 6.57335 66.7588 8.00001 66.6667H72C73.4267 66.7588 74.8323 66.286 75.9133 65.3505C76.9943 64.415 77.664 63.0918 77.7778 61.6667V57.7778H52.9111Z" fill="#6CBAE1"/>
<path d="M15.5556 22.2223H64.4445V53.3334H71.1111V16.8223C71.1291 15.9183 70.7886 15.0441 70.164 14.3904C69.5394 13.7367 68.6816 13.3567 67.7778 13.3334H12.2223C11.3185 13.3567 10.4606 13.7367 9.83606 14.3904C9.21151 15.0441 8.871 15.9183 8.88892 16.8223V53.3334H15.5556V22.2223Z" fill="#6CBAE1"/>
</g>
<defs>
<clipPath id="clip0_198_2">
<rect width="80" height="80" fill="white"/>
</clipPath>
</defs>
</svg>
