<svg width="60" height="60" viewBox="0 0 60 60" fill="none" xmlns="http://www.w3.org/2000/svg">
<path d="M37.5 13.5C37.5 15.4891 36.7098 17.3968 35.3033 18.8033C33.8968 20.2098 31.9891 21 30 21C28.0109 21 26.1032 20.2098 24.6967 18.8033C23.2902 17.3968 22.5 15.4891 22.5 13.5C22.5 11.5109 23.2902 9.60322 24.6967 8.1967C26.1032 6.79018 28.0109 6 30 6C31.9891 6 33.8968 6.79018 35.3033 8.1967C36.7098 9.60322 37.5 11.5109 37.5 13.5V13.5ZM52.5 15C52.5 16.5913 51.8679 18.1174 50.7426 19.2426C49.6174 20.3679 48.0913 21 46.5 21C44.9087 21 43.3826 20.3679 42.2574 19.2426C41.1321 18.1174 40.5 16.5913 40.5 15C40.5 13.4087 41.1321 11.8826 42.2574 10.7574C43.3826 9.63214 44.9087 9 46.5 9C48.0913 9 49.6174 9.63214 50.7426 10.7574C51.8679 11.8826 52.5 13.4087 52.5 15V15ZM13.5 21C15.0913 21 16.6174 20.3679 17.7426 19.2426C18.8679 18.1174 19.5 16.5913 19.5 15C19.5 13.4087 18.8679 11.8826 17.7426 10.7574C16.6174 9.63214 15.0913 9 13.5 9C11.9087 9 10.3826 9.63214 9.25736 10.7574C8.13214 11.8826 7.5 13.4087 7.5 15C7.5 16.5913 8.13214 18.1174 9.25736 19.2426C10.3826 20.3679 11.9087 21 13.5 21V21ZM18 27.75C18 25.68 19.68 24 21.75 24H38.25C40.32 24 42 25.68 42 27.75V42C42 45.1826 40.7357 48.2348 38.4853 50.4853C36.2348 52.7357 33.1826 54 30 54C26.8174 54 23.7652 52.7357 21.5147 50.4853C19.2643 48.2348 18 45.1826 18 42V27.75ZM15 27.75C15 26.361 15.42 25.074 16.137 24H9.75C7.68 24 6 25.68 6 27.75V39C5.99986 40.2844 6.27462 41.5539 6.80581 42.7232C7.33699 43.8926 8.11231 44.9347 9.07966 45.7796C10.047 46.6245 11.184 47.2525 12.4142 47.6215C13.6444 47.9905 14.9393 48.092 16.212 47.919C15.4093 46.0491 14.9969 44.0349 15 42V27.75ZM45 42C45 44.1 44.568 46.104 43.788 47.919C45.0607 48.092 46.3556 47.9905 47.5858 47.6215C48.816 47.2525 49.953 46.6245 50.9203 45.7796C51.8877 44.9347 52.663 43.8926 53.1942 42.7232C53.7254 41.5539 54.0001 40.2844 54 39V27.75C54 25.68 52.32 24 50.25 24H43.863C44.583 25.074 45 26.361 45 27.75V42Z" fill="#FDDB93"/>
</svg>
