<svg width="1261" height="862" viewBox="0 0 1261 862" fill="none" xmlns="http://www.w3.org/2000/svg">
<path fill-rule="evenodd" clip-rule="evenodd" d="M0 0L52.5417 119.815C105.083 239.629 210.167 339.235 315.25 339.235C420.333 339.235 525.417 239.629 630.5 239.629C735.583 239.629 867.417 359.444 972.5 429.336C1077.58 499.228 1155.92 525.853 1208.46 479.259L1261 429.336V862H1208.46C1155.92 862 1050.83 862 945.75 862C840.667 862 735.583 862 630.5 862C525.417 862 420.333 862 315.25 862C210.167 862 105.083 862 52.5417 862H0V0Z" fill="#495371"/>
</svg>
