<svg width="60" height="60" viewBox="0 0 60 60" fill="none" xmlns="http://www.w3.org/2000/svg">
<path d="M30 0C13.458 0 0 13.458 0 30C0 46.542 13.458 60 30 60C46.542 60 60 46.542 60 30C60 13.458 46.542 0 30 0ZM40.479 21C41.0771 20.9847 41.6723 21.0894 42.2294 21.3078C42.7864 21.5262 43.2941 21.8539 43.7225 22.2716C44.1509 22.6893 44.4913 23.1886 44.7237 23.74C44.956 24.2914 45.0756 24.8837 45.0754 25.482C45.0752 26.0804 44.9552 26.6726 44.7225 27.2239C44.4898 27.7751 44.149 28.2741 43.7204 28.6916C43.2917 29.109 42.7838 29.4364 42.2266 29.6544C41.6694 29.8724 41.0741 29.9767 40.476 29.961C39.3078 29.9304 38.1977 29.4447 37.3824 28.6075C36.5671 27.7702 36.111 26.6477 36.1114 25.479C36.1118 24.3104 36.5686 23.1882 37.3845 22.3515C38.2004 21.5148 39.3108 21.0298 40.479 21ZM19.5 21C20.0911 21.0002 20.6765 21.1168 21.2225 21.3432C21.7686 21.5696 22.2647 21.9014 22.6826 22.3195C23.1005 22.7377 23.4319 23.234 23.6579 23.7802C23.884 24.3265 24.0002 24.9119 24 25.503C23.9998 26.0941 23.8832 26.6795 23.6568 27.2255C23.4304 27.7716 23.0986 28.2677 22.6805 28.6856C22.2623 29.1035 21.766 29.4349 21.2198 29.6609C20.6735 29.887 20.0881 30.0032 19.497 30.003C18.3031 30.0026 17.1583 29.528 16.3144 28.6835C15.4705 27.839 14.9966 26.6939 14.997 25.5C14.9974 24.3061 15.472 23.1613 16.3165 22.3174C17.161 21.4735 18.3061 20.9996 19.5 21ZM30 48C18 48 15 36 15 36H45C45 36 42 48 30 48Z" fill="#FDDB93"/>
</svg>
