<svg width="66" height="66" viewBox="0 0 66 66" fill="none" xmlns="http://www.w3.org/2000/svg">
<path fill-rule="evenodd" clip-rule="evenodd" d="M33 0.916504C15.2812 0.916504 0.916656 15.2811 0.916656 32.9998C0.916656 50.7186 15.2812 65.0832 33 65.0832C50.7187 65.0832 65.0833 50.7186 65.0833 32.9998C65.0833 15.2811 50.7187 0.916504 33 0.916504ZM21.3333 30.0832C20.5598 30.0832 19.8179 30.3905 19.2709 30.9374C18.7239 31.4844 18.4167 32.2263 18.4167 32.9998C18.4167 33.7734 18.7239 34.5152 19.2709 35.0622C19.8179 35.6092 20.5598 35.9165 21.3333 35.9165H44.6667C45.4402 35.9165 46.1821 35.6092 46.7291 35.0622C47.276 34.5152 47.5833 33.7734 47.5833 32.9998C47.5833 32.2263 47.276 31.4844 46.7291 30.9374C46.1821 30.3905 45.4402 30.0832 44.6667 30.0832H21.3333Z" fill="#495371"/>
</svg>
