<svg width="79" height="61" viewBox="0 0 79 61" fill="none" xmlns="http://www.w3.org/2000/svg">
<path d="M69.8353 0.90271C72.1823 0.90271 74.4331 1.78121 76.0926 3.34494C77.7522 4.90867 78.6845 7.02954 78.6845 9.24099V51.8774C78.6845 54.0888 77.7522 56.2097 76.0926 57.7735C74.4331 59.3372 72.1823 60.2157 69.8353 60.2157H8.87389C7.71179 60.2157 6.56108 60 5.48744 59.581C4.4138 59.1619 3.43827 58.5477 2.61654 57.7735C1.79481 56.9992 1.14298 56.08 0.698266 55.0683C0.253551 54.0567 0.0246582 52.9724 0.0246582 51.8774V9.24099C0.0246582 7.02954 0.956985 4.90867 2.61654 3.34494C4.27609 1.78121 6.52693 0.90271 8.87389 0.90271H69.8353ZM30.5054 32.4029H16.7399C16.0271 32.4029 15.3384 32.6461 14.8012 33.0876C14.264 33.5291 13.9146 34.1389 13.8177 34.8043L13.7901 35.1823V37.0056L13.8216 37.4059C14.4587 41.5342 18.1243 43.5206 23.6226 43.5206C28.8574 43.5206 32.4325 41.7195 33.3135 37.984L33.4236 37.4096L33.4551 37.0093V35.1823C33.4551 34.5107 33.1969 33.8617 32.7284 33.3556C32.2599 32.8494 31.6127 32.5202 30.9065 32.4288L30.5054 32.4029ZM61.9693 34.241H44.2787L43.8775 34.267C43.1715 34.3585 42.5245 34.6878 42.0562 35.1939C41.5879 35.7001 41.3299 36.3489 41.3299 37.0204C41.3299 37.692 41.5879 38.3408 42.0562 38.8469C42.5245 39.3531 43.1715 39.6824 43.8775 39.7739L44.2787 39.7999H61.9693L62.3705 39.7739C63.0765 39.6824 63.7235 39.3531 64.1918 38.8469C64.6601 38.3408 64.9181 37.692 64.9181 37.0204C64.9181 36.3489 64.6601 35.7001 64.1918 35.1939C63.7235 34.6878 63.0765 34.3585 62.3705 34.267L61.9693 34.241ZM23.6226 17.5867C22.058 17.5867 20.5574 18.1723 19.451 19.2148C18.3447 20.2573 17.7231 21.6712 17.7231 23.1455C17.7231 24.6198 18.3447 26.0338 19.451 27.0762C20.5574 28.1187 22.058 28.7044 23.6226 28.7044C25.1873 28.7044 26.6878 28.1187 27.7942 27.0762C28.9006 26.0338 29.5221 24.6198 29.5221 23.1455C29.5221 21.6712 28.9006 20.2573 27.7942 19.2148C26.6878 18.1723 25.1873 17.5867 23.6226 17.5867ZM61.9693 21.2852H44.2787L43.8775 21.3111C43.1715 21.4027 42.5245 21.7319 42.0562 22.2381C41.5879 22.7443 41.3299 23.3931 41.3299 24.0646C41.3299 24.7361 41.5879 25.3849 42.0562 25.8911C42.5245 26.3973 43.1715 26.7266 43.8775 26.8181L44.2787 26.844H61.9693L62.3705 26.8181C63.0765 26.7266 63.7235 26.3973 64.1918 25.8911C64.6601 25.3849 64.9181 24.7361 64.9181 24.0646C64.9181 23.3931 64.6601 22.7443 64.1918 22.2381C63.7235 21.7319 63.0765 21.4027 62.3705 21.3111L61.9693 21.2852Z" fill="#0E6793"/>
</svg>
