<svg width="1261" height="728" viewBox="0 0 1261 728" fill="none" xmlns="http://www.w3.org/2000/svg">
<path fill-rule="evenodd" clip-rule="evenodd" d="M0 0L52.5417 101.189C105.083 202.378 210.167 286.5 315.25 286.5C420.333 286.5 525.417 202.378 630.5 202.378C735.583 202.378 867.417 303.568 972.5 362.595C1077.58 421.622 1155.92 444.108 1208.46 404.757L1261 362.595V728H1208.46C1155.92 728 1050.83 728 945.75 728C840.667 728 735.583 728 630.5 728C525.417 728 420.333 728 315.25 728C210.167 728 105.083 728 52.5417 728H0V0Z" fill="#495371"/>
</svg>
