<svg width="55" height="36" viewBox="0 0 55 36" fill="none" xmlns="http://www.w3.org/2000/svg">
<path d="M54.205 31.5V4.5C54.205 2.01 52.0752 0 49.4367 0H4.90108C2.26264 0 0.132812 2.01 0.132812 4.5V31.5C0.132812 33.99 2.26264 36 4.90108 36H49.4367C52.0752 36 54.205 33.99 54.205 31.5ZM50.0407 4.17C51.0897 5.16 50.5175 6.18 49.9453 6.69L37.0392 17.85L49.4367 30.03C49.8182 30.45 50.0725 31.11 49.6274 31.56C49.2142 32.04 48.2605 32.01 47.8473 31.71L33.9557 20.52L27.153 26.37L20.3821 20.52L6.4905 31.71C6.07725 32.01 5.1236 32.04 4.71035 31.56C4.26531 31.11 4.51962 30.45 4.90108 30.03L17.2986 17.85L4.39247 6.69C3.82027 6.18 3.24808 5.16 4.2971 4.17C5.34612 3.18 6.42693 3.66 7.317 4.38L27.153 19.5L47.0208 4.38C47.9109 3.66 48.9917 3.18 50.0407 4.17Z" fill="#FDDB93"/>
</svg>
